<svg width="882" height="880" viewBox="0 0 882 880" fill="none" xmlns="http://www.w3.org/2000/svg">
<path d="M756.462 700.584L640.809 585.155L731.709 494.434L793.538 556.147L756.462 700.584ZM731.709 385.566L640.809 294.845L756.462 179.418L793.538 323.861L731.709 385.566ZM557.217 87.9785L701.928 124.978L586.278 240.413L495.383 149.692L557.217 87.9785ZM386.309 149.694L295.412 240.413L179.764 124.983L324.478 87.9785L386.309 149.694ZM125.217 179.408L240.875 294.848L149.983 385.566L88.1416 323.842L125.217 179.408ZM149.983 494.429L240.875 585.147L125.217 700.584L88.1416 556.15L149.983 494.429ZM324.473 792.022L179.754 755.017L295.412 639.582L386.307 730.306L324.473 792.022ZM531.738 585.152L440.844 675.873L349.946 585.152L440.844 494.429L531.738 585.152ZM586.275 349.275L677.17 439.999L586.275 530.72L495.378 439.999L586.275 349.275ZM386.307 439.999L295.412 530.72L204.52 439.999L295.412 349.28L386.307 439.999ZM349.952 294.848L440.846 204.127L531.738 294.845L440.844 385.566L349.952 294.848ZM495.378 730.306L586.275 639.587L701.923 755.017L557.209 792.016L495.378 730.306ZM811.238 809.686L881.684 535.255L786.246 440.001L881.677 344.74L811.235 70.3064L536.277 0L440.846 95.259L345.397 0.00265227L70.441 70.3144L0 344.745L95.4467 439.999L0 535.26L70.441 809.691L345.402 880L440.844 784.736L536.28 879.995L811.238 809.686Z" fill="#111212"/>
</svg>
